<?xml version="1.0" encoding="UTF-8"?>
<svg version="1.1" xmlns="http://www.w3.org/2000/svg" width="612" height="407">
<path d="M0 0 C4.40520189 0.55939072 7.19109516 1.92158854 11.05859375 4 C18.38889987 7.81931825 26.14161675 10.90030909 33.90234375 13.734375 C43.11129127 17.19877752 52.03628488 21.32217161 60.9375 25.5 C60.9375 26.49 60.9375 27.48 60.9375 28.5 C55.58866279 33.5 55.58866279 33.5 52.9375 33.5 C52.64875 34.098125 52.36 34.69625 52.0625 35.3125 C50.9375 37.5 50.9375 37.5 48.9375 40.5 C48.2775 40.5 47.6175 40.5 46.9375 40.5 C46.9375 41.16 46.9375 41.82 46.9375 42.5 C46.2775 42.5 45.6175 42.5 44.9375 42.5 C44.67066406 43.23992187 44.40382812 43.97984375 44.12890625 44.7421875 C42.96231649 47.44255593 41.67617641 49.31710966 39.875 51.625 C26.34262235 70.59297704 20.21032635 94.36099856 19.34375 117.43359375 C18.84580059 119.96643258 17.8960884 120.87999736 15.9375 122.5 C6.93524777 112.9504984 1.17092438 102.9034648 -3.0625 90.5 C-3.36027344 89.70335937 -3.65804687 88.90671875 -3.96484375 88.0859375 C-8.02855927 76.31935824 -8.49763624 62.82886022 -8.0625 50.5 C-9.32513672 50.82871094 -9.32513672 50.82871094 -10.61328125 51.1640625 C-19.77192988 53.50365499 -28.96788098 55.6637772 -38.1875 57.75 C-39.94767456 58.15532959 -39.94767456 58.15532959 -41.7434082 58.56884766 C-42.86191162 58.81940918 -43.98041504 59.0699707 -45.1328125 59.328125 C-46.13070801 59.5540332 -47.12860352 59.77994141 -48.15673828 60.01269531 C-51.17815735 60.51939607 -54.00470821 60.58517526 -57.0625 60.5 C-56.78071031 85.78422059 -51.57244757 112.90127452 -36.125 133.6875 C-34.0625 136.5 -34.0625 136.5 -34.0625 139.5 C-38.27840332 139.0315663 -40.41726527 136.54824833 -43.0625 133.5 C-43.86880859 132.571875 -43.86880859 132.571875 -44.69140625 131.625 C-54.38940332 119.82251588 -61.04101078 105.82233823 -62.0625 90.5 C-64.99684133 93.04778139 -66.47103679 95.91619725 -68.1875 99.375 C-68.70570313 100.40367187 -69.22390625 101.43234375 -69.7578125 102.4921875 C-72.79109806 109.48509134 -72.94302379 117.3375239 -71.375 124.75 C-66.83329347 134.26595655 -60.55289262 137.68872742 -51.0625 141.5 C-48.16819829 142.3165893 -46.14039883 142.44870169 -43.0625 142.5 C-42.29808594 142.52449219 -41.53367188 142.54898438 -40.74609375 142.57421875 C-38.17800619 142.62646466 -35.62972674 142.58046532 -33.0625 142.5 C-32.21945313 142.48324219 -31.37640625 142.46648437 -30.5078125 142.44921875 C-19.23431834 141.86379991 -8.09955072 137.50034229 1.9375 132.5 C2.7728125 132.09394531 3.608125 131.68789062 4.46875 131.26953125 C19.44595345 123.58725879 33.81888376 112.08036762 40.9375 96.5 C41.47117188 95.46230469 42.00484375 94.42460937 42.5546875 93.35546875 C44.48019334 88.82436671 44.26878448 84.41061788 44.125 79.5625 C44.11146484 78.68787109 44.09792969 77.81324219 44.08398438 76.91210938 C44.04894109 74.77446914 43.99514541 72.63715016 43.9375 70.5 C44.9275 70.17 45.9175 69.84 46.9375 69.5 C52.98680878 82.69849189 52.83470899 92.72167889 47.9375 106.5 C46.45257328 109.63386026 44.75191852 112.55002703 42.9375 115.5 C42.25792038 116.82679831 41.58741923 118.15842361 40.9375 119.5 C40.2775 119.5 39.6175 119.5 38.9375 119.5 C38.68613281 120.06460938 38.43476563 120.62921875 38.17578125 121.2109375 C32.14362578 132.36186212 19.49809926 141.03070983 8.9375 147.5 C7.9475 147.5 6.9575 147.5 5.9375 147.5 C5.9375 148.16 5.9375 148.82 5.9375 149.5 C-1.25729473 153.20865708 -8.39937505 156.86205372 -16.0625 159.5 C-17.08214844 159.87382812 -18.10179687 160.24765625 -19.15234375 160.6328125 C-28.58060144 163.5605885 -37.93444353 163.9559405 -47.75 164.0625 C-49.05606201 164.08924805 -50.36212402 164.11599609 -51.70776367 164.14355469 C-63.74870951 164.0979364 -75.2129191 161.06671759 -84.0625 152.5 C-90.52116464 145.53997783 -93.74057391 137.78131931 -93.4140625 128.23828125 C-91.68049654 114.73572862 -84.79479224 102.73030053 -76.0625 92.5 C-74.5775 92.005 -74.5775 92.005 -73.0625 91.5 C-71.85367904 89.49983534 -71.85367904 89.49983534 -71.0625 87.5 C-70.4025 87.5 -69.7425 87.5 -69.0625 87.5 C-68.4025 86.18 -67.7425 84.86 -67.0625 83.5 C-66.0725 83.5 -65.0825 83.5 -64.0625 83.5 C-64.5575 82.51 -64.5575 82.51 -65.0625 81.5 C-65.21594209 79.61527141 -65.31209571 77.72572126 -65.37890625 75.8359375 C-65.42080078 74.71445313 -65.46269531 73.59296875 -65.50585938 72.4375 C-65.54517578 71.261875 -65.58449219 70.08625 -65.625 68.875 C-65.66818359 67.69164062 -65.71136719 66.50828125 -65.75585938 65.2890625 C-65.86217426 62.35949672 -65.96420642 59.42984412 -66.0625 56.5 C-57.52184203 52.23458509 -48.5647465 50.03145363 -39.375 47.625 C-37.7176508 47.18517561 -36.0605064 46.7445788 -34.40356445 46.30322266 C-31.13345664 45.43279132 -27.86250826 44.56564404 -24.59082031 43.70117188 C-18.63497004 42.12490832 -12.6916437 40.50397235 -6.75 38.875 C-5.02475962 38.4035725 -3.29950175 37.93220898 -1.57421875 37.4609375 C-0.41535156 37.14382812 0.74351562 36.82671875 1.9375 36.5 C3.6263628 38.1888628 3.10650142 40.33758783 3.1484375 42.65234375 C3.17494385 43.7314502 3.2014502 44.81055664 3.22875977 45.92236328 C3.25639404 47.0823584 3.28402832 48.24235352 3.3125 49.4375 C3.63660178 60.36070739 4.74023591 70.80388424 6.9375 81.5 C7.04239746 80.6181604 7.04239746 80.6181604 7.14941406 79.71850586 C8.95925148 64.79898598 11.22055986 50.50650334 16.9375 36.5 C14.96136719 36.54060547 14.96136719 36.54060547 12.9453125 36.58203125 C8.43146046 36.57938951 4.23649126 36.02568118 -0.1875 35.1875 C-11.09456566 33.23922039 -22.07046813 31.87143163 -33.0625 30.5 C-35.96907363 34.23716467 -37.41881389 37.81731483 -39 42.2578125 C-40.0625 44.5 -40.0625 44.5 -43.0625 46.5 C-43.3925 46.17 -43.7225 45.84 -44.0625 45.5 C-43.82410606 36.95449398 -41.49442271 29.73880709 -37.0625 22.5 C-28.86102761 22.30968959 -20.78031152 23.04373344 -12.625 23.8125 C-11.54957443 23.91179306 -11.54957443 23.91179306 -10.4524231 24.01309204 C3.37010121 25.28936277 17.15856306 26.81532589 30.9375 28.5 C30.36252899 34.50075379 28.56927294 39.59536283 26.375 45.1875 C25.72178019 46.85570323 25.07440524 48.52620986 24.43359375 50.19921875 C24.14669678 50.92971436 23.8597998 51.66020996 23.56420898 52.4128418 C22.74577715 54.77530047 22.74577715 54.77530047 22.9375 58.5 C23.288125 57.71625 23.63875 56.9325 24 56.125 C28.12407663 47.934392 34.17154691 40.84309363 40.01953125 33.84765625 C42.0374273 31.45502941 42.0374273 31.45502941 43.9375 28.5 C43.06134033 28.22003174 42.18518066 27.94006348 41.2824707 27.65161133 C36.06707874 25.85604868 31.13120123 23.49310827 26.125 21.1875 C25.08279297 20.71376953 24.04058594 20.24003906 22.96679688 19.75195312 C17.45029669 17.22052711 12.07944924 14.5749104 6.83178711 11.52197266 C3.62920637 9.7941723 1.58141816 9.16260017 -2.0625 9.5 C-5.5371137 12.44116678 -8.05589384 16.05238075 -10.640625 19.76953125 C-11.10984375 20.34058594 -11.5790625 20.91164062 -12.0625 21.5 C-12.7225 21.5 -13.3825 21.5 -14.0625 21.5 C-14.80236228 17.33827465 -14.5898391 15.38381541 -12.38671875 11.69140625 C-4.41769933 0.72125703 -4.41769933 0.72125703 0 0 Z M19.9375 63.5 C20.9375 65.5 20.9375 65.5 20.9375 65.5 Z " fill="#FAD00C" transform="translate(210.0625,121.5)"/>
<path d="M0 0 C0.66 0 1.32 0 2 0 C8.04930878 13.19849189 7.89720899 23.22167889 3 37 C1.51507328 40.13386026 -0.18558148 43.05002703 -2 46 C-2.67957962 47.32679831 -3.35008077 48.65842361 -4 50 C-4.66 50 -5.32 50 -6 50 C-6.25136719 50.56460938 -6.50273437 51.12921875 -6.76171875 51.7109375 C-12.79387422 62.86186212 -25.43940074 71.53070983 -36 78 C-36.99 78 -37.98 78 -39 78 C-39 78.66 -39 79.32 -39 80 C-46.19479473 83.70865708 -53.33687505 87.36205372 -61 90 C-62.01964844 90.37382812 -63.03929687 90.74765625 -64.08984375 91.1328125 C-73.51810144 94.0605885 -82.87194353 94.4559405 -92.6875 94.5625 C-94.64659302 94.60262207 -94.64659302 94.60262207 -96.64526367 94.64355469 C-108.68620951 94.5979364 -120.1504191 91.56671759 -129 83 C-135.45866464 76.03997783 -138.67807391 68.28131931 -138.3515625 58.73828125 C-137.1935999 49.71903925 -134.07166788 38.58865189 -127.11328125 32.29296875 C-125.11673584 30.79080601 -123.07101136 29.39682248 -121 28 C-118.9636005 26.37260251 -116.9864828 24.68851038 -115 23 C-114.609375 28.859375 -114.609375 28.859375 -115 31 C-115.65613281 31.53238281 -116.31226563 32.06476563 -116.98828125 32.61328125 C-120.22661999 36.45527148 -119.54011791 40.58135565 -119.4375 45.4375 C-119.44458984 46.37916016 -119.45167969 47.32082031 -119.45898438 48.29101562 C-119.4113601 53.4820615 -119.06121159 56.65584032 -116 61 C-116 62.32 -116 63.64 -116 65 C-115.09121094 65.12955078 -115.09121094 65.12955078 -114.1640625 65.26171875 C-109.28017401 66.08070928 -105.25216513 67.21079327 -100.875 69.5625 C-96.46859672 71.89610922 -92.96015846 72.87717703 -88 73 C-86.84564453 73.04060547 -86.84564453 73.04060547 -85.66796875 73.08203125 C-83.10583626 73.12641465 -80.56116081 73.08027519 -78 73 C-77.15695313 72.98324219 -76.31390625 72.96648437 -75.4453125 72.94921875 C-64.17181834 72.36379991 -53.03705072 68.00034229 -43 63 C-42.1646875 62.59394531 -41.329375 62.18789062 -40.46875 61.76953125 C-25.49154655 54.08725879 -11.11861624 42.58036762 -4 27 C-3.46503906 25.96101563 -2.93007812 24.92203125 -2.37890625 23.8515625 C-0.45901044 19.33529954 -0.70515504 14.95450447 -0.875 10.125 C-0.9181484 8.4193693 -0.95742937 6.71363481 -0.9921875 5.0078125 C-1.01651855 4.26160645 -1.04084961 3.51540039 -1.06591797 2.74658203 C-1 1 -1 1 0 0 Z " fill="#FCD006" transform="translate(255,191)"/>
<path d="M0 0 C0 0.66 0 1.32 0 2 C-1.32 2 -2.64 2 -4 2 C-4.33 2.99 -4.66 3.98 -5 5 C-6.32 5.33 -7.64 5.66 -9 6 C-4.38 6 0.24 6 5 6 C4.01 6.33 3.02 6.66 2 7 C2 7.66 2 8.32 2 9 C-0.2904656 9.48557871 -2.58213418 9.96349409 -4.875 10.4375 C-6.15117187 10.70433594 -7.42734375 10.97117188 -8.7421875 11.24609375 C-13.46110383 12.15462728 -18.21591048 12.58791732 -23 13 C-22.71821031 38.28422059 -17.50994757 65.40127452 -2.0625 86.1875 C0 89 0 89 0 92 C-4.21590332 91.5315663 -6.35476527 89.04824833 -9 86 C-9.53753906 85.38125 -10.07507813 84.7625 -10.62890625 84.125 C-20.32690332 72.32251588 -26.97851078 58.32233823 -28 43 C-30.93434133 45.54778139 -32.40853679 48.41619725 -34.125 51.875 C-34.64320313 52.90367187 -35.16140625 53.93234375 -35.6953125 54.9921875 C-38.71475071 61.9531678 -38.90387589 69.80930271 -37.3125 77.1875 C-35.52994016 81.00727108 -33.33151393 84.4938302 -31 88 C-33 89 -33 89 -35 88.375 C-37.61321858 86.57841222 -38.00919855 84.97240435 -39 82 C-39.34401855 81.38866211 -39.68803711 80.77732422 -40.04248047 80.14746094 C-41.17779454 77.60125426 -41.22920846 75.79509402 -41.1953125 73.015625 C-41.18886719 72.08105469 -41.18242187 71.14648438 -41.17578125 70.18359375 C-41.15902344 69.21550781 -41.14226562 68.24742187 -41.125 67.25 C-41.11597656 66.26644531 -41.10695312 65.28289062 -41.09765625 64.26953125 C-41.07412785 61.84610593 -41.04125368 59.42317778 -41 57 C-39.68 56.34 -38.36 55.68 -37 55 C-37 52.03 -37 49.06 -37 46 C-37.54269531 46.56589844 -38.08539063 47.13179687 -38.64453125 47.71484375 C-39.71767578 48.81505859 -39.71767578 48.81505859 -40.8125 49.9375 C-41.52019531 50.66839844 -42.22789062 51.39929688 -42.95703125 52.15234375 C-45 54 -45 54 -48 55 C-46.51131293 50.39860359 -44.25370145 47.49772906 -41 44 C-40.34 44 -39.68 44 -39 44 C-38.34 42.68 -37.68 41.36 -37 40 C-36.34 40 -35.68 40 -35 40 C-34.34 38.68 -33.68 37.36 -33 36 C-32.01 36 -31.02 36 -30 36 C-30.33 35.34 -30.66 34.68 -31 34 C-31.15344209 32.11527141 -31.24959571 30.22572126 -31.31640625 28.3359375 C-31.35830078 27.21445313 -31.40019531 26.09296875 -31.44335938 24.9375 C-31.48267578 23.761875 -31.52199219 22.58625 -31.5625 21.375 C-31.60568359 20.19164062 -31.64886719 19.00828125 -31.69335938 17.7890625 C-31.79967426 14.85949672 -31.90170642 11.92984412 -32 9 C-25.85423821 6.05417402 -19.79031633 3.91510356 -13.1875 2.25 C-12.35541016 2.02957031 -11.52332031 1.80914062 -10.66601562 1.58203125 C-6.90551897 0.61099683 -3.93115295 0 0 0 Z " fill="#F6D73F" transform="translate(176,169)"/>
<path d="M0 0 C4.40520189 0.55939072 7.19109516 1.92158854 11.05859375 4 C18.38889987 7.81931825 26.14161675 10.90030909 33.90234375 13.734375 C43.11129127 17.19877752 52.03628488 21.32217161 60.9375 25.5 C60.9375 26.49 60.9375 27.48 60.9375 28.5 C55.58866279 33.5 55.58866279 33.5 52.9375 33.5 C52.64875 34.098125 52.36 34.69625 52.0625 35.3125 C50.9375 37.5 50.9375 37.5 48.9375 40.5 C48.2775 40.5 47.6175 40.5 46.9375 40.5 C46.9375 41.16 46.9375 41.82 46.9375 42.5 C46.2775 42.5 45.6175 42.5 44.9375 42.5 C44.67066406 43.23992187 44.40382812 43.97984375 44.12890625 44.7421875 C42.96231649 47.44255593 41.67617641 49.31710966 39.875 51.625 C34.80152309 58.65965285 31.44195106 66.59074235 27.87963867 74.46044922 C26.93949346 76.49568455 25.95037074 78.50010709 24.9375 80.5 C25.53369955 75.63103697 26.50726822 71.17209049 27.9375 66.5 C28.5975 66.5 29.2575 66.5 29.9375 66.5 C29.9375 65.18 29.9375 63.86 29.9375 62.5 C30.5975 62.5 31.2575 62.5 31.9375 62.5 C32.5975 59.86 33.2575 57.22 33.9375 54.5 C32.9475 54.17 31.9575 53.84 30.9375 53.5 C30.4425 54.49 30.4425 54.49 29.9375 55.5 C27.96227154 56.54808041 25.96268491 57.5520411 23.9375 58.5 C26.20379588 48.93119516 33.87354935 41.19956231 40.01953125 33.84765625 C42.0374273 31.45502941 42.0374273 31.45502941 43.9375 28.5 C43.06134033 28.22003174 42.18518066 27.94006348 41.2824707 27.65161133 C36.06707874 25.85604868 31.13120123 23.49310827 26.125 21.1875 C25.08279297 20.71376953 24.04058594 20.24003906 22.96679688 19.75195312 C17.45029669 17.22052711 12.07944924 14.5749104 6.83178711 11.52197266 C3.62920637 9.7941723 1.58141816 9.16260017 -2.0625 9.5 C-5.5371137 12.44116678 -8.05589384 16.05238075 -10.640625 19.76953125 C-11.10984375 20.34058594 -11.5790625 20.91164062 -12.0625 21.5 C-12.7225 21.5 -13.3825 21.5 -14.0625 21.5 C-14.80236228 17.33827465 -14.5898391 15.38381541 -12.38671875 11.69140625 C-4.41769933 0.72125703 -4.41769933 0.72125703 0 0 Z " fill="#F7D222" transform="translate(210.0625,121.5)"/>
<path d="M0 0 C0.66 0 1.32 0 2 0 C8.04930878 13.19849189 7.89720899 23.22167889 3 37 C1.51507328 40.13386026 -0.18558148 43.05002703 -2 46 C-2.67957962 47.32679831 -3.35008077 48.65842361 -4 50 C-4.66 50 -5.32 50 -6 50 C-6.25136719 50.56460938 -6.50273437 51.12921875 -6.76171875 51.7109375 C-12.79387422 62.86186212 -25.43940074 71.53070983 -36 78 C-36.99 78 -37.98 78 -39 78 C-39 78.66 -39 79.32 -39 80 C-46.19479473 83.70865708 -53.33687505 87.36205372 -61 90 C-62.01964844 90.37382812 -63.03929687 90.74765625 -64.08984375 91.1328125 C-73.51810144 94.0605885 -82.87194353 94.4559405 -92.6875 94.5625 C-94.64659302 94.60262207 -94.64659302 94.60262207 -96.64526367 94.64355469 C-108.71343042 94.59783328 -120.09306259 91.55627058 -129 83 C-129.66 82.01 -130.32 81.02 -131 80 C-126.55393927 80.49400675 -125.0544726 81.85568997 -122 85 C-116.8053775 88.71044464 -112.80594385 89.51367593 -106.453125 89.82421875 C-104 90 -104 90 -101 91 C-97.81696531 91.22914769 -94.62797883 91.19039228 -91.4375 91.1875 C-90.08410522 91.1862915 -90.08410522 91.1862915 -88.70336914 91.18505859 C-77.81531818 91.14071968 -77.81531818 91.14071968 -68 87 C-65.765625 86.40234375 -65.765625 86.40234375 -63.25 85.9375 C-62.37085938 85.77378906 -61.49171875 85.61007812 -60.5859375 85.44140625 C-57.3962171 84.89693736 -54.20863828 84.41851804 -51 84 C-51 83.34 -51 82.68 -51 82 C-49.68 82 -48.36 82 -47 82 C-47 81.34 -47 80.68 -47 80 C-46.01 80 -45.02 80 -44 80 C-44 79.34 -44 78.68 -44 78 C-41.09399739 76.74335022 -39.20395416 76 -36 76 C-36 75.34 -36 74.68 -36 74 C-35.34 73.34 -34.68 72.68 -34 72 C-32.68 72 -31.36 72 -30 72 C-30 71.34 -30 70.68 -30 70 C-29.195625 69.525625 -28.39125 69.05125 -27.5625 68.5625 C-24.7081924 67.20016328 -24.7081924 67.20016328 -24 64 C-23.01 64 -22.02 64 -21 64 C-21 63.34 -21 62.68 -21 62 C-20.01 62 -19.02 62 -18 62 C-18 61.01 -18 60.02 -18 59 C-17.01 59 -16.02 59 -15 59 C-15 58.34 -15 57.68 -15 57 C-14.01 57 -13.02 57 -12 57 C-11.7215625 55.081875 -11.7215625 55.081875 -11.4375 53.125 C-11.28087891 52.04605469 -11.28087891 52.04605469 -11.12109375 50.9453125 C-10.8315703 48.91859333 -10.8315703 48.91859333 -12 47 C-12.5775 47.495 -13.155 47.99 -13.75 48.5 C-16 50 -16 50 -20 50 C-20.21914062 50.58136719 -20.43828125 51.16273438 -20.6640625 51.76171875 C-22.42778131 54.71672131 -24.48300054 55.97107943 -27.375 57.8125 C-28.33148438 58.43769531 -29.28796875 59.06289062 -30.2734375 59.70703125 C-33 61 -33 61 -35.3515625 60.69921875 C-35.89554687 60.46847656 -36.43953125 60.23773438 -37 60 C-35.76636719 59.18208984 -35.76636719 59.18208984 -34.5078125 58.34765625 C-20.24578295 48.7674002 -6.11959626 37.18561404 -1 20 C-0.68164783 16.69488789 -0.75840988 13.44021478 -0.875 10.125 C-0.9181484 8.4193693 -0.95742937 6.71363481 -0.9921875 5.0078125 C-1.01651855 4.26160645 -1.04084961 3.51540039 -1.06591797 2.74658203 C-1 1 -1 1 0 0 Z " fill="#FBD10C" transform="translate(255,191)"/>
<path d="M0 0 C2.72977064 -0.08126109 5.4571017 -0.14061663 8.1875 -0.1875 C9.34088867 -0.22520508 9.34088867 -0.22520508 10.51757812 -0.26367188 C15.12189874 -0.32295497 18.37125811 -0.17779144 22 3 C23.15125445 5.95562439 23.20494445 8.84828675 23 12 C21.64913319 15.02336858 20.32414606 16.67585394 18 19 C15.80708918 19.45662153 13.59414111 19.820412 11.375 20.125 C10.18648438 20.29257813 8.99796875 20.46015625 7.7734375 20.6328125 C6.85820312 20.75398438 5.94296875 20.87515625 5 21 C4.34 22.98 3.68 24.96 3 27 C0.69 27 -1.62 27 -4 27 C-3.07900136 17.94351337 -1.84948274 8.91714894 0 0 Z M7 7 C7 8.98 7 10.96 7 13 C8.99954746 13.04254356 11.00041636 13.04080783 13 13 C14.29633621 11.93354885 14.29633621 11.93354885 14.0625 9.4375 C14.041875 8.633125 14.02125 7.82875 14 7 C11.69 7 9.38 7 7 7 Z " fill="#252525" transform="translate(433,191)"/>
<path d="M0 0 C3.08964653 2.40077359 3.88117116 3.54166017 4.875 7.375 C5.00420295 11.12188566 4.42565664 13.56165164 3 17 C2.34 17 1.68 17 1 17 C0.67 17.99 0.34 18.98 0 20 C-4.9772544 22.4886272 -9.71645737 22.36608707 -15 21 C-18.3745477 18.80654399 -18.87980654 17.47218861 -19.875 13.5625 C-20.05049661 8.56084668 -18.85256048 6.32293867 -16.1875 2.1875 C-11.26245576 -1.19243232 -5.79905286 -1.07389868 0 0 Z M-11 8 C-11.2502157 11.08365871 -11.2502157 11.08365871 -11 14 C-9.15274948 14.69159401 -9.15274948 14.69159401 -7 15 C-6.01 14.34 -5.02 13.68 -4 13 C-3.7497843 9.91634129 -3.7497843 9.91634129 -4 7 C-7.48581856 5.7979936 -7.67992344 5.78661563 -11 8 Z " fill="#2A2A2A" transform="translate(490,197)"/>
<path d="M0 0 C8.20147239 -0.19031041 16.28218848 0.54373344 24.4375 1.3125 C25.15445038 1.37869537 25.87140076 1.44489075 26.6100769 1.51309204 C40.43260121 2.78936277 54.22106306 4.31532589 68 6 C67.43584866 10.3149954 66.80723554 14.02408182 65 18 C64.67 18 64.34 18 64 18 C64 15.69 64 13.38 64 11 C64.66 11 65.32 11 66 11 C66 9.68 66 8.36 66 7 C65.27409668 7.00523682 64.54819336 7.01047363 63.80029297 7.01586914 C60.49187088 7.03673497 57.18346269 7.04969069 53.875 7.0625 C52.16183594 7.07506836 52.16183594 7.07506836 50.4140625 7.08789062 C49.30546875 7.09111328 48.196875 7.09433594 47.0546875 7.09765625 C45.53077393 7.10551147 45.53077393 7.10551147 43.97607422 7.11352539 C40.90152371 6.99624352 38.02841157 6.52992296 35 6 C32.9110334 5.79768643 30.81954055 5.62026291 28.7265625 5.46484375 C27.57285156 5.37783203 26.41914063 5.29082031 25.23046875 5.20117188 C23.44576172 5.0706543 23.44576172 5.0706543 21.625 4.9375 C20.41199219 4.84662109 19.19898438 4.75574219 17.94921875 4.66210938 C14.96631787 4.43897899 11.9832535 4.21835661 9 4 C9 4.66 9 5.32 9 6 C10.14339844 6.06058594 11.28679687 6.12117187 12.46484375 6.18359375 C13.95574305 6.26798428 15.44662775 6.35263302 16.9375 6.4375 C18.06961914 6.49647461 18.06961914 6.49647461 19.22460938 6.55664062 C24.88671875 6.88671875 24.88671875 6.88671875 26 8 C27.51165654 8.39148761 29.03469632 8.73972457 30.5625 9.0625 C31.38878906 9.23910156 32.21507812 9.41570312 33.06640625 9.59765625 C33.70449219 9.73042969 34.34257812 9.86320313 35 10 C35 10.33 35 10.66 35 11 C24.57273982 10.47932209 14.33072801 9.528829 4 8 C1.00840833 11.65450119 -0.36797047 15.35005041 -1.9375 19.7578125 C-3 22 -3 22 -6 24 C-6.33 23.67 -6.66 23.34 -7 23 C-6.76160606 14.45449398 -4.43192271 7.23880709 0 0 Z " fill="#F6D849" transform="translate(173,144)"/>
<path d="M0 0 C1.56041016 -0.04253906 1.56041016 -0.04253906 3.15234375 -0.0859375 C6.0625 0.375 6.0625 0.375 8.42578125 2.1015625 C10.32290414 4.73670694 10.50054886 5.92816932 10.3125 9.125 C10.27640625 9.92421875 10.2403125 10.7234375 10.203125 11.546875 C10.13351562 12.45179688 10.13351562 12.45179688 10.0625 13.375 C8.7425 13.705 7.4225 14.035 6.0625 14.375 C6.0625 15.035 6.0625 15.695 6.0625 16.375 C6.7225 16.375 7.3825 16.375 8.0625 16.375 C7.9375 18.25 7.9375 18.25 7.0625 20.375 C2.14874221 22.95472284 -2.68375469 22.70089777 -7.9375 21.375 C-10.5 19.9375 -10.5 19.9375 -11.9375 17.375 C-12.61720279 12.69611567 -12.52944725 8.72802228 -10.625 4.375 C-7.36612328 0.51262759 -4.85684671 0.06003519 0 0 Z M-1.9375 6.375 C-2.2675 7.035 -2.5975 7.695 -2.9375 8.375 C-1.2875 8.375 0.3625 8.375 2.0625 8.375 C2.0625 7.715 2.0625 7.055 2.0625 6.375 C0.7425 6.375 -0.5775 6.375 -1.9375 6.375 Z M-3.9375 13.375 C-3.2775 14.035 -2.6175 14.695 -1.9375 15.375 C0.66530568 15.05458603 0.66530568 15.05458603 3.0625 14.375 C3.0625 14.045 3.0625 13.715 3.0625 13.375 C0.7525 13.375 -1.5575 13.375 -3.9375 13.375 Z " fill="#242424" transform="translate(417.9375,196.625)"/>
<path d="M0 0 C3.03815786 2.37482672 3.8761385 3.56235602 4.9375 7.3125 C5.02384161 12.40665494 3.74200653 16.06443718 0.3125 19.875 C-3.69602028 21.82509095 -7.66979424 22.54961968 -12.00390625 21.52734375 C-14.67326052 20.50752782 -16.61624772 19.58875349 -18.19921875 17.16015625 C-19.61848878 13.33158881 -18.98763442 9.89007026 -18 6 C-14.30400513 -1.52398956 -7.80363458 -1.53481446 0 0 Z M-9.75 7.1875 C-11.29839423 9.00671447 -11.29839423 9.00671447 -10.6875 11.6875 C-10.460625 12.450625 -10.23375 13.21375 -10 14 C-8.02 14.495 -8.02 14.495 -6 15 C-4.26352052 13.32511472 -4.26352052 13.32511472 -3 11 C-3.70957237 8.26601865 -3.70957237 8.26601865 -5 6 C-7.9387397 5.71924929 -7.9387397 5.71924929 -9.75 7.1875 Z " fill="#262626" transform="translate(323,197)"/>
<path d="M0 0 C2.93847653 -0.107834 5.87301151 -0.18721916 8.8125 -0.25 C9.64587891 -0.28351563 10.47925781 -0.31703125 11.33789062 -0.3515625 C17.48175859 -0.45025917 17.48175859 -0.45025917 20.0546875 1.78515625 C22.67771907 7.93085417 20.60322034 14.81615012 19 21 C16.36 21 13.72 21 11 21 C11.56606279 16.30976546 12.18537505 11.65499974 13 7 C11.35 7.33 9.7 7.66 8 8 C7.01 12.29 6.02 16.58 5 21 C2.36 21 -0.28 21 -3 21 C-2.53752467 13.80729161 -1.74922933 6.9969173 0 0 Z " fill="#262626" transform="translate(331,197)"/>
<path d="M0 0 C2.77141717 -0.08089542 5.54047819 -0.14044062 8.3125 -0.1875 C9.09818359 -0.21263672 9.88386719 -0.23777344 10.69335938 -0.26367188 C11.45068359 -0.27333984 12.20800781 -0.28300781 12.98828125 -0.29296875 C14.03302612 -0.31653442 14.03302612 -0.31653442 15.09887695 -0.34057617 C17.59298753 0.10623059 18.46285652 1.02413629 20 3 C20.91764345 9.19656006 20.08158113 15.14555306 18 21 C15.36 21 12.72 21 10 21 C10.33 16.38 10.66 11.76 11 7 C9.35 7.33 7.7 7.66 6 8 C5.34 12.29 4.68 16.58 4 21 C1.36 21 -1.28 21 -4 21 C-3.59248958 13.60860415 -2.41492814 7.00177279 0 0 Z " fill="#232323" transform="translate(384,197)"/>
<path d="M0 0 C1.00023193 0.00523682 2.00046387 0.01047363 3.03100586 0.01586914 C4.1105957 0.0190918 5.19018555 0.02231445 6.30249023 0.02563477 C8.00695312 0.03820312 8.00695312 0.03820312 9.74584961 0.05102539 C11.45611328 0.05779297 11.45611328 0.05779297 13.20092773 0.06469727 C16.02845312 0.07652792 18.85587601 0.09301129 21.68334961 0.11352539 C21.35334961 2.42352539 21.02334961 4.73352539 20.68334961 7.11352539 C17.71334961 7.11352539 14.74334961 7.11352539 11.68334961 7.11352539 C11.55057617 8.3059082 11.41780273 9.49829102 11.28100586 10.72680664 C11.10278978 12.29323217 10.92439505 13.85963737 10.74584961 15.42602539 C10.61533203 16.60455078 10.61533203 16.60455078 10.48217773 17.80688477 C10.35166016 18.94287109 10.35166016 18.94287109 10.21850586 20.10180664 C10.13995361 20.79830322 10.06140137 21.4947998 9.98046875 22.21240234 C9.68334961 24.11352539 9.68334961 24.11352539 8.68334961 27.11352539 C6.04334961 27.11352539 3.40334961 27.11352539 0.68334961 27.11352539 C0.99279662 24.52979306 1.30578918 21.94657406 1.62084961 19.36352539 C1.70786133 18.63391602 1.79487305 17.90430664 1.88452148 17.15258789 C2.3036237 13.73768097 2.80062361 10.43748996 3.68334961 7.11352539 C1.37334961 7.11352539 -0.93665039 7.11352539 -3.31665039 7.11352539 C-3.35919395 5.11397793 -3.35745822 3.11310903 -3.31665039 1.11352539 C-2.31665039 0.11352539 -2.31665039 0.11352539 0 0 Z " fill="#2D2D2D" transform="translate(288.316650390625,190.886474609375)"/>
<path d="M0 0 C0.99 0.495 0.99 0.495 2 1 C-4.92878925 10.02002382 -14.3380106 17.09168671 -24 23 C-24.99 23 -25.98 23 -27 23 C-27 23.66 -27 24.32 -27 25 C-34.19479473 28.70865708 -41.33687505 32.36205372 -49 35 C-50.01964844 35.37382812 -51.03929687 35.74765625 -52.08984375 36.1328125 C-61.51810144 39.0605885 -70.87194353 39.4559405 -80.6875 39.5625 C-82.64659302 39.60262207 -82.64659302 39.60262207 -84.64526367 39.64355469 C-96.71343042 39.59783328 -108.09306259 36.55627058 -117 28 C-117.66 27.01 -118.32 26.02 -119 25 C-114.55393927 25.49400675 -113.0544726 26.85568997 -110 30 C-104.8053775 33.71044464 -100.80594385 34.51367593 -94.453125 34.82421875 C-92 35 -92 35 -89 36 C-85.81696531 36.22914769 -82.62797883 36.19039228 -79.4375 36.1875 C-78.08410522 36.1862915 -78.08410522 36.1862915 -76.70336914 36.18505859 C-65.81531818 36.14071968 -65.81531818 36.14071968 -56 32 C-53.765625 31.40234375 -53.765625 31.40234375 -51.25 30.9375 C-50.37085938 30.77378906 -49.49171875 30.61007812 -48.5859375 30.44140625 C-45.3962171 29.89693736 -42.20863828 29.41851804 -39 29 C-39 28.34 -39 27.68 -39 27 C-37.68 27 -36.36 27 -35 27 C-35 26.34 -35 25.68 -35 25 C-34.01 25 -33.02 25 -32 25 C-32 24.34 -32 23.68 -32 23 C-29.09399739 21.74335022 -27.20395416 21 -24 21 C-24 20.34 -24 19.68 -24 19 C-23.34 18.34 -22.68 17.68 -22 17 C-20.68 17 -19.36 17 -18 17 C-18 16.34 -18 15.68 -18 15 C-17.195625 14.525625 -16.39125 14.05125 -15.5625 13.5625 C-12.7081924 12.20016328 -12.7081924 12.20016328 -12 9 C-11.01 9 -10.02 9 -9 9 C-9 8.34 -9 7.68 -9 7 C-8.01 7 -7.02 7 -6 7 C-6 6.01 -6 5.02 -6 4 C-5.01 4 -4.02 4 -3 4 C-3 3.34 -3 2.68 -3 2 C-2.01 2 -1.02 2 0 2 C0 1.34 0 0.68 0 0 Z " fill="#F7E367" transform="translate(243,246)"/>
<path d="M0 0 C0.66 0.33 1.32 0.66 2 1 C2.02505615 1.87213135 2.0501123 2.7442627 2.07592773 3.64282227 C2.17157363 6.90627763 2.27077356 10.16958608 2.37231445 13.43286133 C2.41538658 14.84004557 2.45707864 16.24727282 2.49731445 17.65454102 C2.5556957 19.68779408 2.61918685 21.72083617 2.68359375 23.75390625 C2.72025146 24.97408447 2.75690918 26.1942627 2.79467773 27.45141602 C3.00081086 31.01401411 3.44468315 34.47640588 4 38 C3.67 37.01 3.34 36.02 3 35 C0.06565867 37.54778139 -1.40853679 40.41619725 -3.125 43.875 C-3.64320313 44.90367187 -4.16140625 45.93234375 -4.6953125 46.9921875 C-7.71475071 53.9531678 -7.90387589 61.80930271 -6.3125 69.1875 C-4.52994016 73.00727108 -2.33151393 76.4938302 0 80 C-2 81 -2 81 -4 80.375 C-6.61321858 78.57841222 -7.00919855 76.97240435 -8 74 C-8.34401855 73.38866211 -8.68803711 72.77732422 -9.04248047 72.14746094 C-10.17779454 69.60125426 -10.22920846 67.79509402 -10.1953125 65.015625 C-10.18886719 64.08105469 -10.18242187 63.14648438 -10.17578125 62.18359375 C-10.15902344 61.21550781 -10.14226562 60.24742187 -10.125 59.25 C-10.11597656 58.26644531 -10.10695312 57.28289062 -10.09765625 56.26953125 C-10.07412785 53.84610593 -10.04125368 51.42317778 -10 49 C-8.68 48.34 -7.36 47.68 -6 47 C-6 44.03 -6 41.06 -6 38 C-6.54269531 38.56589844 -7.08539063 39.13179687 -7.64453125 39.71484375 C-8.71767578 40.81505859 -8.71767578 40.81505859 -9.8125 41.9375 C-10.52019531 42.66839844 -11.22789062 43.39929688 -11.95703125 44.15234375 C-14 46 -14 46 -17 47 C-15.51131293 42.39860359 -13.25370145 39.49772906 -10 36 C-9.34 36 -8.68 36 -8 36 C-7.34 34.68 -6.68 33.36 -6 32 C-5.34 32 -4.68 32 -4 32 C-3.34 30.68 -2.68 29.36 -2 28 C-1.01 28 -0.02 28 1 28 C0.67 27.34 0.34 26.68 0 26 C-0.36870397 21.8225759 -0.46818524 17.62768254 -0.625 13.4375 C-0.70234375 11.6750293 -0.70234375 11.6750293 -0.78125 9.87695312 C-0.82507813 8.76126953 -0.86890625 7.64558594 -0.9140625 6.49609375 C-0.9548291 5.46669678 -0.9955957 4.4372998 -1.03759766 3.37670898 C-1 1 -1 1 0 0 Z " fill="#F7E060" transform="translate(145,177)"/>
<path d="M0 0 C2.31 0 4.62 0 7 0 C7 1.65 7 3.3 7 5 C8.32 5 9.64 5 11 5 C11 6.98 11 8.96 11 11 C9.35 11 7.7 11 6 11 C5.67 13.97 5.34 16.94 5 20 C6.32 19.67 7.64 19.34 9 19 C9.33 20.98 9.66 22.96 10 25 C7.1778917 26.91903365 5.87098068 26.99110212 2.375 26.75 C-1 26 -1 26 -3 24 C-3.23046875 21.6875 -3.23046875 21.6875 -3.1875 19 C-3.18105469 18.113125 -3.17460937 17.22625 -3.16796875 16.3125 C-3 14 -3 14 -2 12 C-2.99 11.67 -3.98 11.34 -5 11 C-4.67 9.02 -4.34 7.04 -4 5 C-3.01 5 -2.02 5 -1 5 C-0.67 3.35 -0.34 1.7 0 0 Z " fill="#252525" transform="translate(358,192)"/>
<path d="M0 0 C-0.14029419 2.1462026 -0.28738164 4.29196218 -0.4375 6.4375 C-0.51871094 7.63246094 -0.59992188 8.82742187 -0.68359375 10.05859375 C-1 13 -1 13 -2 14 C-2.34637071 15.40876827 -2.65253669 16.82753854 -2.9375 18.25 C-3.48644201 20.8513297 -4.04150546 23.10010139 -5.0625 25.5625 C-5.96181371 27.90071565 -6.28240287 29.77726756 -6.5625 32.25 C-7 36 -7 36 -8 37 C-8.23075082 38.34747084 -8.41153063 39.70377565 -8.5625 41.0625 C-8.706875 42.361875 -8.85125 43.66125 -9 45 C-9.66 43.68 -10.32 42.36 -11 41 C-12.98 41.495 -12.98 41.495 -15 42 C-15 40.35 -15 38.7 -15 37 C-14.34 37 -13.68 37 -13 37 C-13.01160156 36.05898437 -13.02320313 35.11796875 -13.03515625 34.1484375 C-13.04417969 32.90320313 -13.05320313 31.65796875 -13.0625 30.375 C-13.07410156 29.14523438 -13.08570313 27.91546875 -13.09765625 26.6484375 C-13.00863924 23.32276209 -12.63686087 20.25952412 -12 17 C-11.34 17 -10.68 17 -10 17 C-9.34 14.36 -8.68 11.72 -8 9 C-7.34 9 -6.68 9 -6 9 C-6.33 7.02 -6.66 5.04 -7 3 C-3.375 0 -3.375 0 0 0 Z " fill="#F9CD09" transform="translate(236,152)"/>
<path d="M0 0 C4.40132642 0.55889859 7.18438291 1.91674601 11.046875 3.99609375 C14.37966754 5.73004663 17.79261056 7.22474087 21.25 8.6875 C22.40113281 9.17605469 23.55226562 9.66460937 24.73828125 10.16796875 C27.46266534 11.30229717 30.19364634 12.41378401 32.9375 13.5 C30.44616372 14.74566814 29.64701551 14.37266789 27 13.6875 C25.96552734 13.43033203 25.96552734 13.43033203 24.91015625 13.16796875 C22.9375 12.5 22.9375 12.5 19.9375 10.5 C17.9478005 10.10986284 15.94730131 9.76797351 13.9375 9.5 C13.9375 8.84 13.9375 8.18 13.9375 7.5 C11.6275 7.17 9.3175 6.84 6.9375 6.5 C6.9375 7.49 6.9375 8.48 6.9375 9.5 C7.9275 9.83 8.9175 10.16 9.9375 10.5 C9.9375 11.16 9.9375 11.82 9.9375 12.5 C9.33421875 12.27183594 8.7309375 12.04367188 8.109375 11.80859375 C7.31015625 11.52113281 6.5109375 11.23367187 5.6875 10.9375 C4.89859375 10.64746094 4.1096875 10.35742188 3.296875 10.05859375 C0.56461133 9.41171676 -0.51993341 9.30349807 -3.0625 10.5 C-5.44116732 13.02796095 -5.44116732 13.02796095 -7.6875 16.0625 C-9.10316999 17.90851485 -10.55237807 19.73041697 -12.0625 21.5 C-12.7225 21.5 -13.3825 21.5 -14.0625 21.5 C-14.80236228 17.33827465 -14.5898391 15.38381541 -12.38671875 11.69140625 C-4.41769933 0.72125703 -4.41769933 0.72125703 0 0 Z " fill="#F7E167" transform="translate(210.0625,121.5)"/>
<path d="M0 0 C1.32 0.33 2.64 0.66 4 1 C4 1.99 4 2.98 4 4 C-1.34883721 9 -1.34883721 9 -4 9 C-4.433125 9.8971875 -4.433125 9.8971875 -4.875 10.8125 C-6 13 -6 13 -8 16 C-8.66 16 -9.32 16 -10 16 C-10 16.66 -10 17.32 -10 18 C-10.66 18 -11.32 18 -12 18 C-12.26683594 18.73992187 -12.53367188 19.47984375 -12.80859375 20.2421875 C-13.97518351 22.94255593 -15.26132359 24.81710966 -17.0625 27.125 C-22.13597691 34.15965285 -25.49554894 42.09074235 -29.05786133 49.96044922 C-29.99800654 51.99568455 -30.98712926 54.00010709 -32 56 C-31.40380045 51.13103697 -30.43023178 46.67209049 -29 42 C-28.34 42 -27.68 42 -27 42 C-27 40.68 -27 39.36 -27 38 C-26.34 38 -25.68 38 -25 38 C-24.34 35.36 -23.68 32.72 -23 30 C-23.99 29.67 -24.98 29.34 -26 29 C-26.33 29.66 -26.66 30.32 -27 31 C-28.97522846 32.04808041 -30.97481509 33.0520411 -33 34 C-31.2778458 26.72868226 -26.40801389 20.07724851 -21 15 C-20.67 15.66 -20.34 16.32 -20 17 C-20.9375 19.625 -20.9375 19.625 -22 22 C-18.52451159 21.46022435 -18.52451159 21.46022435 -15 20 C-13.6954344 17.00384054 -13.6954344 17.00384054 -13 14 C-12.01 13.67 -11.02 13.34 -10 13 C-10 12.34 -10 11.68 -10 11 C-9.01 11 -8.02 11 -7 11 C-6.34 9.68 -5.68 8.36 -5 7 C-4.01 7 -3.02 7 -2 7 C-2 6.01 -2 5.02 -2 4 C-1.01 4 -0.02 4 1 4 C0.505 2.02 0.505 2.02 0 0 Z " fill="#F8DC49" transform="translate(267,146)"/>
<path d="M0 0 C4.62 0 9.24 0 14 0 C12 6 12 6 9 7.6875 C4.87333692 10.86846946 4.89351183 13.73879373 4.2265625 18.734375 C4.15179688 19.48203125 4.07703125 20.2296875 4 21 C1.36 21 -1.28 21 -4 21 C-3.63092209 13.47844675 -2.70045975 7.0446776 0 0 Z " fill="#252525" transform="translate(459,197)"/>
<path d="M0 0 C-0.8125 2.5 -0.8125 2.5 -3 5 C-6.69681924 5.46346554 -10.29212965 5.28328381 -14 5 C-14.33 5.99 -14.66 6.98 -15 8 C-15.99 8 -16.98 8 -18 8 C-18 8.66 -18 9.32 -18 10 C-25.73059495 11.35709504 -33.14453364 12.31918373 -41 12 C-40.67 11.34 -40.34 10.68 -40 10 C-38.66666667 9.66666667 -37.33333333 9.33333333 -36 9 C-35.67 8.34 -35.34 7.68 -35 7 C-33.68 7 -32.36 7 -31 7 C-31 6.34 -31 5.68 -31 5 C-26.05 4.34 -21.1 3.68 -16 3 C-16 2.34 -16 1.68 -16 1 C-13.04267062 0.01422354 -10.53130493 -0.33662937 -7.4375 -0.625 C-6.46683594 -0.72039062 -5.49617188 -0.81578125 -4.49609375 -0.9140625 C-2 -1 -2 -1 0 0 Z " fill="#F7CE0F" transform="translate(207,164)"/>
<path d="M0 0 C0.66 0 1.32 0 2 0 C5.07692308 6.4 5.07692308 6.4 4.6875 9.4375 C4.460625 9.953125 4.23375 10.46875 4 11 C3.505 10.01 3.505 10.01 3 9 C2.67 12.96 2.34 16.92 2 21 C1.34 21 0.68 21 0 21 C-0.0825 21.825 -0.165 22.65 -0.25 23.5 C-1.03192381 27.1489778 -2.29156685 29.8470344 -4.02734375 33.11328125 C-5.10257064 35.10100271 -5.10257064 35.10100271 -6 37.75 C-7.21721667 40.48873751 -8.72006237 42.07630263 -11 44 C-11.66 44 -12.32 44 -13 44 C-13 44.66 -13 45.32 -13 46 C-13.66 46 -14.32 46 -15 46 C-15.33 47.32 -15.66 48.64 -16 50 C-17.32 50 -18.64 50 -20 50 C-20.21914062 50.58136719 -20.43828125 51.16273438 -20.6640625 51.76171875 C-22.42778131 54.71672131 -24.48300054 55.97107943 -27.375 57.8125 C-28.33148438 58.43769531 -29.28796875 59.06289062 -30.2734375 59.70703125 C-33 61 -33 61 -35.3515625 60.69921875 C-35.89554688 60.46847656 -36.43953125 60.23773438 -37 60 C-36.17757812 59.45472656 -35.35515625 58.90945312 -34.5078125 58.34765625 C-20.24578295 48.7674002 -6.11959626 37.18561404 -1 20 C-0.68164783 16.69488789 -0.75840988 13.44021478 -0.875 10.125 C-0.9181484 8.4193693 -0.95742937 6.71363481 -0.9921875 5.0078125 C-1.01651855 4.26160645 -1.04084961 3.51540039 -1.06591797 2.74658203 C-1 1 -1 1 0 0 Z " fill="#F7DF4B" transform="translate(255,191)"/>
<path d="M0 0 C0 0.66 0 1.32 0 2 C-1.32 2 -2.64 2 -4 2 C-4.33 2.99 -4.66 3.98 -5 5 C-6.32 5.33 -7.64 5.66 -9 6 C-4.38 6 0.24 6 5 6 C4.01 6.33 3.02 6.66 2 7 C2 7.66 2 8.32 2 9 C-6.32712743 10.76535102 -14.49627276 12.34586714 -23 13 C-23 17.95 -23 22.9 -23 28 C-23.33 28 -23.66 28 -24 28 C-24 22.72 -24 17.44 -24 12 C-22.68 12 -21.36 12 -20 12 C-20 11.34 -20 10.68 -20 10 C-18.35 9.34 -16.7 8.68 -15 8 C-19.62 8 -24.24 8 -29 8 C-26.16253617 6.10835745 -24.26924501 5.37698258 -21.03515625 4.4921875 C-19.58786133 4.09580078 -19.58786133 4.09580078 -18.11132812 3.69140625 C-16.6021582 3.28728516 -16.6021582 3.28728516 -15.0625 2.875 C-14.06025391 2.59785156 -13.05800781 2.32070312 -12.02539062 2.03515625 C-7.82863023 0.89847532 -4.37912679 0 0 0 Z " fill="#F5CF20" transform="translate(176,169)"/>
<path d="M0 0 C2.31 0.33 4.62 0.66 7 1 C7 1.66 7 2.32 7 3 C8.3303125 2.9071875 8.3303125 2.9071875 9.6875 2.8125 C13.46418293 3.02627451 14.83171395 4.03868006 18 6 C19.30165442 6.37344763 20.61605373 6.70411639 21.9375 7 C25.61102165 7.82253426 28.68896375 9.17893006 32 11 C32 11.66 32 12.32 32 13 C32.99 13 33.98 13 35 13 C36.6875 14.375 36.6875 14.375 38 16 C38 16.66 38 17.32 38 18 C37.01 18.33 36.02 18.66 35 19 C34.34 18.34 33.68 17.68 33 17 C30.80295489 16.32348793 30.80295489 16.32348793 28.375 15.875 C27.14910156 15.62363281 27.14910156 15.62363281 25.8984375 15.3671875 C25.27195313 15.24601563 24.64546875 15.12484375 24 15 C24 14.34 24 13.68 24 13 C23.34 13 22.68 13 22 13 C22 12.34 22 11.68 22 11 C21.27941406 11.03996094 20.55882812 11.07992187 19.81640625 11.12109375 C16.74499428 10.98903582 14.74479027 10.28174044 11.9375 9.0625 C9.55503163 8.03829557 7.31953074 7.07888947 4.80078125 6.45703125 C2.44211564 5.85841113 1.47129057 4.91267774 0 3 C0 2.01 0 1.02 0 0 Z " fill="#F8CE0D" transform="translate(217,128)"/>
<path d="M0 0 C2.97 0 5.94 0 9 0 C7.68 6.93 6.36 13.86 5 21 C2.36 21 -0.28 21 -3 21 C-2.29411026 13.94110263 -1.21786614 6.98795036 0 0 Z " fill="#292929" transform="translate(372,197)"/>
<path d="M0 0 C0.66 1.32 1.32 2.64 2 4 C2.66 4 3.32 4 4 4 C7.23859701 13.71579104 3.58704893 24.5789285 -0.63671875 33.4296875 C-1.08660156 34.27789062 -1.53648437 35.12609375 -2 36 C-2.96661363 32.87819599 -2.98988909 30.47916205 -2.5625 27.25 C-2.46066406 26.45078125 -2.35882813 25.6515625 -2.25390625 24.828125 C-2.17011719 24.22484375 -2.08632812 23.6215625 -2 23 C-3.32 24.32 -4.64 25.64 -6 27 C-6 23.70342144 -5.25666731 21.83635572 -4 18.8125 C-3.62875 17.91144531 -3.2575 17.01039063 -2.875 16.08203125 C-2.441875 15.05142578 -2.441875 15.05142578 -2 14 C-1.34 14 -0.68 14 0 14 C0 9.38 0 4.76 0 0 Z " fill="#F8E055" transform="translate(257,198)"/>
<path d="M0 0 C15.41162868 0.44729361 30.68171481 1.21920612 46 3 C46 3.33 46 3.66 46 4 C45.195625 4.12375 44.39125 4.2475 43.5625 4.375 C42.716875 4.58125 41.87125 4.7875 41 5 C40.67 5.66 40.34 6.32 40 7 C32.02018766 7.20431952 24.70432563 7.21989044 17 5 C16.67 4.67 16.34 4.34 16 4 C13.31137336 3.60006314 10.63647783 3.24865457 7.9375 2.9375 C7.17888672 2.84662109 6.42027344 2.75574219 5.63867188 2.66210938 C3.7595699 2.4375626 1.87983905 2.21829022 0 2 C0 1.34 0 0.68 0 0 Z " fill="#F7CE11" transform="translate(182,148)"/>
<path d="M0 0 C2.97 0.66 5.94 1.32 9 2 C9 2.66 9 3.32 9 4 C8.34 4 7.68 4 7 4 C7 4.99 7 5.98 7 7 C6.360625 7.28875 5.72125 7.5775 5.0625 7.875 C2.84793921 8.82823451 2.84793921 8.82823451 2 11 C1.01 11 0.02 11 -1 11 C-1 11.66 -1 12.32 -1 13 C-1.99 13.66 -2.98 14.32 -4 15 C-5.21284876 18.05429073 -5.21284876 18.05429073 -6 21 C-7.65 21.33 -9.3 21.66 -11 22 C-11.33 23.32 -11.66 24.64 -12 26 C-13.1875 23.875 -13.1875 23.875 -14 21 C-13 17.8125 -13 17.8125 -11 15 C-7.8125 13.625 -7.8125 13.625 -5 13 C-5 11.68 -5 10.36 -5 9 C-3.68 8.67 -2.36 8.34 -1 8 C-1 7.01 -1 6.02 -1 5 C-0.34 5 0.32 5 1 5 C0.67 3.35 0.34 1.7 0 0 Z " fill="#FACF07" transform="translate(258,146)"/>
<path d="M0 0 C-0.33 0.66 -0.66 1.32 -1 2 C-1.99 2 -2.98 2 -4 2 C-4 2.66 -4 3.32 -4 4 C-11.51022818 7.14998533 -18.23459665 7.40632955 -26.33154297 7.28125 C-28.39178397 7.24974333 -30.4512592 7.24023274 -32.51171875 7.234375 C-42.53481193 7.15506269 -42.53481193 7.15506269 -46 6 C-46 5.01 -46 4.02 -46 3 C-45.39414063 3.0721875 -44.78828125 3.144375 -44.1640625 3.21875 C-38.07835201 3.89285947 -32.12031755 4.20588224 -26 4 C-25.13632813 3.97164063 -24.27265625 3.94328125 -23.3828125 3.9140625 C-16.75312797 3.51051649 -10.92393423 1.90480491 -4.65234375 -0.2578125 C-2 -1 -2 -1 0 0 Z " fill="#F2DA5B" transform="translate(203,260)"/>
<path d="M0 0 C0.33 0 0.66 0 1 0 C1.02696365 1.79158489 1.04637917 3.58328473 1.0625 5.375 C1.07410156 6.37273437 1.08570312 7.37046875 1.09765625 8.3984375 C1 11 1 11 0 13 C-0.12463392 15.63760152 -0.18516573 18.2372717 -0.1875 20.875 C-0.19974609 21.59558594 -0.21199219 22.31617188 -0.22460938 23.05859375 C-0.23535009 26.9467339 0.02986611 29.64690938 2 33 C2.125 36.25 2.125 36.25 2 39 C-3.61067577 33.00238108 -5.5964563 25.86645596 -5.3671875 17.765625 C-4.56501013 11.72369335 -2.73117957 5.46235914 0 0 Z " fill="#F4D223" transform="translate(122,232)"/>
<path d="M0 0 C-0.33 0.66 -0.66 1.32 -1 2 C-3.5625 2.625 -3.5625 2.625 -6 3 C-6 3.66 -6 4.32 -6 5 C-7.98 5.33 -9.96 5.66 -12 6 C-11.98952637 6.59538574 -11.97905273 7.19077148 -11.96826172 7.80419922 C-11.92676051 10.49442343 -11.90069296 13.18458037 -11.875 15.875 C-11.85824219 16.81214844 -11.84148437 17.74929687 -11.82421875 18.71484375 C-11.81777344 19.61074219 -11.81132812 20.50664062 -11.8046875 21.4296875 C-11.79421387 22.25710449 -11.78374023 23.08452148 -11.77294922 23.93701172 C-12 26 -12 26 -14 28 C-16.66508031 8.82093992 -16.66508031 8.82093992 -16 2 C-12.90470825 -1.09529175 -4.21967815 -0.08790996 0 0 Z " fill="#F6CD0B" transform="translate(162,176)"/>
<path d="M0 0 C0.33 0 0.66 0 1 0 C0.67 6.6 0.34 13.2 0 20 C-0.66 20 -1.32 20 -2 20 C-2 26.27 -2 32.54 -2 39 C-2.66 39 -3.32 39 -4 39 C-4.33 39.66 -4.66 40.32 -5 41 C-8.32797915 34.71546794 -9.45164525 30.11341265 -9 23 C-8.67 23 -8.34 23 -8 23 C-7.34 26.63 -6.68 30.26 -6 34 C-5.81824219 32.55109375 -5.63648438 31.1021875 -5.44921875 29.609375 C-2.88365417 9.69398635 -2.88365417 9.69398635 0 0 Z " fill="#F7DE5E" transform="translate(223,169)"/>
<path d="M0 0 C2.97 0 5.94 0 9 0 C9 0.33 9 0.66 9 1 C6.36 1 3.72 1 1 1 C0.67 2.98 0.34 4.96 0 7 C3.465 6.505 3.465 6.505 7 6 C6.22914063 6.53367188 5.45828125 7.06734375 4.6640625 7.6171875 C1.63596911 10.32559948 0.74302511 12.33733865 -0.625 16.125 C-2.68998924 21.79332616 -2.68998924 21.79332616 -6 24 C-6.33 23.67 -6.66 23.34 -7 23 C-6.76160606 14.45449398 -4.43192271 7.23880709 0 0 Z " fill="#F5E168" transform="translate(173,144)"/>
<path d="M0 0 C4.44606073 0.49400675 5.9455274 1.85568997 9 5 C14.1946225 8.71044464 18.19405615 9.51367593 24.546875 9.82421875 C27 10 27 10 30 11 C31.91906917 11.08266486 33.84089474 11.10740663 35.76171875 11.09765625 C37.43911133 11.09282227 37.43911133 11.09282227 39.15039062 11.08789062 C40.31763672 11.07951172 41.48488281 11.07113281 42.6875 11.0625 C43.86634766 11.05798828 45.04519531 11.05347656 46.25976562 11.04882812 C49.17322789 11.03703273 52.08658863 11.0205727 55 11 C49.88223771 14.18371499 43.82251758 13.37194948 38.00292969 13.37060547 C35.90214806 13.37494393 33.80353036 13.41118225 31.703125 13.44921875 C21.80152143 13.53307708 13.43147003 12.23898572 5.5 5.9375 C4.55640625 5.20853516 4.55640625 5.20853516 3.59375 4.46484375 C2 3 2 3 0 0 Z " fill="#F2D128" transform="translate(124,271)"/>
<path d="M0 0 C0.66 0 1.32 0 2 0 C2 0.66 2 1.32 2 2 C2.66 2 3.32 2 4 2 C4.99 3.98 5.98 5.96 7 8 C7.66 8 8.32 8 9 8 C9.12375 8.804375 9.2475 9.60875 9.375 10.4375 C9.58125 11.283125 9.7875 12.12875 10 13 C10.66 13.33 11.32 13.66 12 14 C12 15.32 12 16.64 12 18 C13.32 18 14.64 18 16 18 C16 12.72 16 7.44 16 2 C16.66 2 17.32 2 18 2 C17.91308261 4.77236494 17.80622639 7.54147078 17.6875 10.3125 C17.66494141 11.09818359 17.64238281 11.88386719 17.61914062 12.69335938 C17.58369141 13.45068359 17.54824219 14.20800781 17.51171875 14.98828125 C17.48553467 15.68477783 17.45935059 16.38127441 17.43237305 17.09887695 C16.88776232 19.49350359 15.84170838 20.43272547 14 22 C0 7.14893617 0 7.14893617 0 0 Z " fill="#F7E576" transform="translate(212,222)"/>
<path d="M0 0 C1.32 0.33 2.64 0.66 4 1 C4 1.99 4 2.98 4 4 C-1.34883721 9 -1.34883721 9 -4 9 C-4.433125 9.8971875 -4.433125 9.8971875 -4.875 10.8125 C-6 13 -6 13 -8 16 C-8.66 16 -9.32 16 -10 16 C-10 16.66 -10 17.32 -10 18 C-10.66 18 -11.32 18 -12 18 C-12.226875 18.721875 -12.45375 19.44375 -12.6875 20.1875 C-14.24831013 23.53209313 -16.3031287 25.51603959 -19 28 C-18.40138258 25.64828869 -17.73075648 23.3140622 -17 21 C-16.34 20.67 -15.68 20.34 -15 20 C-14.690625 19.01 -14.38125 18.02 -14.0625 17 C-13.5365625 15.515 -13.5365625 15.515 -13 14 C-12.01 13.67 -11.02 13.34 -10 13 C-10 12.34 -10 11.68 -10 11 C-9.01 11 -8.02 11 -7 11 C-6.34 9.68 -5.68 8.36 -5 7 C-4.01 7 -3.02 7 -2 7 C-2 6.01 -2 5.02 -2 4 C-1.01 4 -0.02 4 1 4 C0.67 2.68 0.34 1.36 0 0 Z " fill="#F7DE49" transform="translate(267,146)"/>
<path d="M0 0 C0.66 0 1.32 0 2 0 C5.07692308 6.4 5.07692308 6.4 4.6875 9.4375 C4.460625 9.953125 4.23375 10.46875 4 11 C3.67 10.34 3.34 9.68 3 9 C2.67 12.96 2.34 16.92 2 21 C1.34 21 0.68 21 0 21 C-0.0825 21.825 -0.165 22.65 -0.25 23.5 C-1.14514916 27.67736276 -2.55560623 31.46827245 -5 35 C-6.485 35.495 -6.485 35.495 -8 36 C-7.0447839 33.47358731 -6.06594475 31.11390457 -4.7109375 28.7734375 C-0.30760766 20.86804416 -0.60110515 13.6484836 -0.921875 4.8671875 C-0.96054688 2.95292969 -0.96054688 2.95292969 -1 1 C-0.67 0.67 -0.34 0.34 0 0 Z " fill="#F9E572" transform="translate(255,191)"/>
<path d="M0 0 C5.20727928 0.53135503 9.23549238 1.88244106 14 4 C16.77888613 4.69140522 16.77888613 4.69140522 19 5 C19 5.66 19 6.32 19 7 C19.66 7 20.32 7 21 7 C21 7.66 21 8.32 21 9 C21.62648437 9.04898438 22.25296875 9.09796875 22.8984375 9.1484375 C23.71570313 9.22320312 24.53296875 9.29796875 25.375 9.375 C26.18710938 9.44460937 26.99921875 9.51421875 27.8359375 9.5859375 C30 10 30 10 32 12 C32 12.99 32 13.98 32 15 C25.19078657 13.05451045 19.12182086 10.1868875 12.84960938 6.95703125 C8.62873203 4.78629433 4.38371699 2.82180446 0 1 C0 0.67 0 0.34 0 0 Z " fill="#F7E370" transform="translate(220,134)"/>
<path d="M0 0 C2.76691737 2.5200232 4.67255441 5.35719179 6.6875 8.5 C7.62142578 9.93859375 7.62142578 9.93859375 8.57421875 11.40625 C10 14 10 14 10 17 C4.83529301 16.42614367 2.17394755 12.46009727 -0.875 8.66796875 C-2.60106526 6.45818762 -4.30905399 4.23672686 -6 2 C-5.34 1.67 -4.68 1.34 -4 1 C-3.34 1.33 -2.68 1.66 -2 2 C-2 2.99 -2 3.98 -2 5 C-1.34 5 -0.68 5 0 5 C0.33 5.99 0.66 6.98 1 8 C1.66 8.33 2.32 8.66 3 9 C2.505 8.2575 2.01 7.515 1.5 6.75 C0 4 0 4 0 0 Z " fill="#F3E175" transform="translate(166,244)"/>
<path d="M0 0 C2.25501194 3.38251791 2.904994 6.12235168 3.875 10.0625 C5.25759635 15.51425433 6.91433581 20.64969611 9.1171875 25.8359375 C10.34140697 28.83690027 11.18253317 31.86637716 12 35 C11.01 35.495 11.01 35.495 10 36 C10 34.68 10 33.36 10 32 C9.34 32 8.68 32 8 32 C7.67 30.02 7.34 28.04 7 26 C6.01 25.67 5.02 25.34 4 25 C3.96261719 24.443125 3.92523438 23.88625 3.88671875 23.3125 C3.53616823 19.2433646 3.03004611 15.71604101 1.4375 11.9375 C-0.26988772 7.81821992 -0.23725284 4.42871959 0 0 Z " fill="#F5E373" transform="translate(154,209)"/>
<path d="M0 0 C0 1.65 0 3.3 0 5 C0.66 5 1.32 5 2 5 C2.33 14.57 2.66 24.14 3 34 C0.51522171 30.27283256 0.30872721 26.90422516 -0.125 22.5625 C-0.20991699 21.76150879 -0.29483398 20.96051758 -0.38232422 20.13525391 C-1.01872104 13.74695659 -1.22656113 7.41923201 -1 1 C-1.9075 1.350625 -2.815 1.70125 -3.75 2.0625 C-6.87758436 2.96468779 -8.05208081 3.13381507 -11 2 C-7.17679443 0.57741188 -4.08718695 -0.24042276 0 0 Z " fill="#FAE56F" transform="translate(203,171)"/>
<path d="M0 0 C0 8.58 0 17.16 0 26 C-0.66 26 -1.32 26 -2 26 C-2 18.08 -2 10.16 -2 2 C-5.3 2.33 -8.6 2.66 -12 3 C-8.52582963 0.68388642 -4.04642977 -2.02321489 0 0 Z " fill="#F8E570" transform="translate(213,159)"/>
<path d="M0 0 C1.81242052 -0.02687279 3.62495233 -0.04633715 5.4375 -0.0625 C6.44683594 -0.07410156 7.45617187 -0.08570313 8.49609375 -0.09765625 C11 0 11 0 12 1 C12.04080783 2.99958364 12.04254356 5.00045254 12 7 C11.34 7 10.68 7 10 7 C10 5.35 10 3.7 10 2 C2.85003242 3.87727724 2.85003242 3.87727724 -4.1875 6.125 C-7.79286051 7.24666771 -11.24566451 7.61162047 -15 8 C-12.28817788 5.39665076 -11.10866187 5.00543309 -7.25 4.8125 C-6.1775 4.874375 -5.105 4.93625 -4 5 C-4 4.34 -4 3.68 -4 3 C-3.01 2.67 -2.02 2.34 -1 2 C-0.67 1.34 -0.34 0.68 0 0 Z " fill="#F8D83D" transform="translate(193,169)"/>
<path d="M0 0 C2.67733998 2.67031284 3.00280229 4.03721441 3.29296875 7.890625 C3.27314945 9.34404009 3.23754845 10.79731167 3.1875 12.25 C3.17396484 12.99507812 3.16042969 13.74015625 3.14648438 14.5078125 C3.11127204 16.33885416 3.05746851 18.16952169 3 20 C1.68 20 0.36 20 -1 20 C-2.29183852 17.41632296 -1.7109138 16.76931129 -1 14 C-0.77882441 11.5861824 -0.59427758 9.16885403 -0.4375 6.75 C-0.35371094 5.48671875 -0.26992188 4.2234375 -0.18359375 2.921875 C-0.12300781 1.95765625 -0.06242187 0.9934375 0 0 Z " fill="#F4D330" transform="translate(257,198)"/>
<path d="M0 0 C1 1 1 1 1.1875 3.4375 C1 6 1 6 -1 8 C-3.5 8.25 -3.5 8.25 -6 8 C-8 6 -8 6 -8.125 3.375 C-8.08375 2.59125 -8.0425 1.8075 -8 1 C-5.26752652 -0.36623674 -3.01801098 -0.128426 0 0 Z " fill="#3C3C3C" transform="translate(381,188)"/>
<path d="M0 0 C1 2 1 2 0.25 4.4375 C-0.93098981 6.85852911 -1.9831559 8.25818009 -4 10 C-2.68 9.67 -1.36 9.34 0 9 C-4 16.71428571 -4 16.71428571 -8 18 C-8.7569816 13.74197853 -8.51882449 11.84877867 -6.21875 8.0859375 C-4.20297268 5.339086 -2.14460299 2.64724432 0 0 Z " fill="#F6EA91" transform="translate(204,125)"/>
<path d="M0 0 C3.96 0 7.92 0 12 0 C12 0.33 12 0.66 12 1 C3.67287257 2.76535102 -4.49627276 4.34586714 -13 5 C-13 9.95 -13 14.9 -13 20 C-13.33 20 -13.66 20 -14 20 C-14 14.72 -14 9.44 -14 4 C-12.68 4 -11.36 4 -10 4 C-10 3.34 -10 2.68 -10 2 C-6.7 2 -3.4 2 0 2 C0 1.34 0 0.68 0 0 Z " fill="#F9EC9C" transform="translate(166,177)"/>
<path d="M0 0 C0.33 0 0.66 0 1 0 C1 2.64 1 5.28 1 8 C0.34 8 -0.32 8 -1 8 C-1.66 14.93 -2.32 21.86 -3 29 C-7.14528558 20.70942884 -4.76200749 13.16552815 -1.97265625 4.6875 C-1 2 -1 2 0 0 Z " fill="#FBEFA0" transform="translate(122,232)"/>
<path d="M0 0 C1.18529297 0.02707031 1.18529297 0.02707031 2.39453125 0.0546875 C2.98621094 0.07789063 3.57789063 0.10109375 4.1875 0.125 C-3.84679262 5.48119508 -13.55940987 4.36128064 -22.8125 4.25 C-24.26952511 4.23995155 -25.72655691 4.23082899 -27.18359375 4.22265625 C-30.72670329 4.20078711 -34.26955812 4.16635977 -37.8125 4.125 C-37.8125 3.795 -37.8125 3.465 -37.8125 3.125 C-36.57947144 3.095271 -36.57947144 3.095271 -35.3215332 3.06494141 C-31.58903874 2.96955397 -27.8570933 2.85992911 -24.125 2.75 C-22.83142578 2.7190625 -21.53785156 2.688125 -20.20507812 2.65625 C-18.95791016 2.61757813 -17.71074219 2.57890625 -16.42578125 2.5390625 C-15.27891846 2.5076416 -14.13205566 2.4762207 -12.95043945 2.44384766 C-8.29902361 1.97121488 -4.74858196 -0.14174872 0 0 Z " fill="#F7E687" transform="translate(184.8125,280.875)"/>
<path d="M0 0 C2.97922593 -0.02683987 5.95821295 -0.04676037 8.9375 -0.0625 C9.78763672 -0.07087891 10.63777344 -0.07925781 11.51367188 -0.08789062 C12.32255859 -0.09111328 13.13144531 -0.09433594 13.96484375 -0.09765625 C14.7137085 -0.10289307 15.46257324 -0.10812988 16.23413086 -0.11352539 C18 0 18 0 19 1 C20.51165654 1.39148761 22.03469632 1.73972457 23.5625 2.0625 C24.38878906 2.23910156 25.21507812 2.41570312 26.06640625 2.59765625 C26.70449219 2.73042969 27.34257812 2.86320313 28 3 C28 3.33 28 3.66 28 4 C18.53616378 3.54362211 9.32190498 2.81847768 0 1 C0 0.67 0 0.34 0 0 Z " fill="#F8E371" transform="translate(180,151)"/>
<path d="M0 0 C3.125 0.25 3.125 0.25 5 1.625 C6.125 3.25 6.125 3.25 6.125 5.25 C4.7328125 5.1571875 4.7328125 5.1571875 3.3125 5.0625 C0.14709709 4.9185437 0.14709709 4.9185437 -1.5625 6.75 C-1.995625 7.245 -2.42875 7.74 -2.875 8.25 C-3.865 8.25 -4.855 8.25 -5.875 8.25 C-3.71305668 0.32287449 -3.71305668 0.32287449 0 0 Z " fill="#F3CD18" transform="translate(208.875,122.75)"/>
<path d="M0 0 C0.91058531 3.07322544 1.08886184 5.80097361 1 9 C1.33 7.68 1.66 6.36 2 5 C2.66 5 3.32 5 4 5 C3.52389341 9.99911924 1.96837781 12.97832683 -1 17 C-1.66 16.67 -2.32 16.34 -3 16 C-2.52013969 10.43109483 -1.70084819 5.32932432 0 0 Z " fill="#F8EFA2" transform="translate(169,151)"/>
<path d="M0 0 C2.4957321 2.4957321 2.94900532 4.64995445 4 8 C4.37125 8.825 4.7425 9.65 5.125 10.5 C6.15669981 13.44771374 6.14422195 15.89922808 6 19 C2.96836552 16.40145616 1.42175322 13.72363938 0 10 C-0.24038 6.64970375 -0.17887272 3.35220722 0 0 Z " fill="#F5CE0C" transform="translate(151,211)"/>
<path d="M0 0 C0.66 0.33 1.32 0.66 2 1 C-0.24687354 6.41893031 -3.51152523 10.29700831 -8 14 C-8.99 14.33 -9.98 14.66 -11 15 C-9.51131293 10.39860359 -7.25370145 7.49772906 -4 4 C-3.34 4 -2.68 4 -2 4 C-1.34 2.68 -0.68 1.36 0 0 Z " fill="#FAE466" transform="translate(139,209)"/>
<path d="M0 0 C-1.05078125 2.44921875 -1.05078125 2.44921875 -3 5 C-6.35546875 5.70703125 -6.35546875 5.70703125 -10.1875 5.8125 C-12.09595703 5.88404297 -12.09595703 5.88404297 -14.04296875 5.95703125 C-15.01878906 5.97121094 -15.99460938 5.98539063 -17 6 C-15.41733775 2.83467549 -12.23555882 2.41630936 -9.0625 1.3125 C-8.41603516 1.07466797 -7.76957031 0.83683594 -7.10351562 0.59179688 C-2.25215616 -1.12607808 -2.25215616 -1.12607808 0 0 Z " fill="#FCD004" transform="translate(207,164)"/>
<path d="M0 0 C3.02438725 0.33604303 4.58644705 0.56388961 6.71875 2.8125 C9.5628097 5.53968053 12.73009062 7.08305105 16.25 8.75 C17.22453125 9.22373047 17.22453125 9.22373047 18.21875 9.70703125 C19.80893701 10.47873965 21.40399229 11.24040275 23 12 C18.16143068 13.61285644 14.41734671 11.19236114 10 9 C5.92494425 6.41351834 2.69089305 4.03633958 0 0 Z " fill="#F9EA7D" transform="translate(124,271)"/>
<path d="M0 0 C0 0.66 0 1.32 0 2 C-3.3 2.33 -6.6 2.66 -10 3 C-10 3.66 -10 4.32 -10 5 C-15.24385089 6.7479503 -19.47322267 7.19392201 -25 7 C-22.38825913 5.25883942 -20.83576328 4.52755512 -17.91015625 3.7109375 C-17.12576172 3.49179688 -16.34136719 3.27265625 -15.53320312 3.046875 C-14.71787109 2.82515625 -13.90253906 2.6034375 -13.0625 2.375 C-11.84530273 2.03082031 -11.84530273 2.03082031 -10.60351562 1.6796875 C-6.84358742 0.6433168 -3.95465976 0 0 0 Z " fill="#F9E572" transform="translate(201,162)"/>
<path d="M0 0 C0.66 0.33 1.32 0.66 2 1 C1.73445312 1.47566406 1.46890625 1.95132813 1.1953125 2.44140625 C-2.48828031 9.74137302 -3.19404235 16.95102822 -4 25 C-4.33 25 -4.66 25 -5 25 C-5.33 19.72 -5.66 14.44 -6 9 C-4.68 8.34 -3.36 7.68 -2 7 C-0.70079254 3.45411499 -0.70079254 3.45411499 0 0 Z " fill="#F9E979" transform="translate(141,217)"/>
<path d="M0 0 C-0.33 0.66 -0.66 1.32 -1 2 C-3.5625 2.625 -3.5625 2.625 -6 3 C-6 3.66 -6 4.32 -6 5 C-7.32 5 -8.64 5 -10 5 C-10 4.01 -10 3.02 -10 2 C-11.32 2.33 -12.64 2.66 -14 3 C-14.33 5.97 -14.66 8.94 -15 12 C-15.33 12 -15.66 12 -16 12 C-16.02688151 10.35425434 -16.04634123 8.70838587 -16.0625 7.0625 C-16.07410156 6.14597656 -16.08570313 5.22945312 -16.09765625 4.28515625 C-16 2 -16 2 -15 1 C-9.93755771 0.21444861 -5.11652669 -0.10659431 0 0 Z " fill="#F1CD26" transform="translate(162,176)"/>
<path d="M0 0 C0.33 0.99 0.66 1.98 1 3 C1.99 3 2.98 3 4 3 C4.05382106 5.62527189 4.09358313 8.24944713 4.125 10.875 C4.14175781 11.62136719 4.15851563 12.36773437 4.17578125 13.13671875 C4.1933959 15.09194461 4.10320189 17.04742021 4 19 C3.34 19.66 2.68 20.32 2 21 C2.33 17.37 2.66 13.74 3 10 C2.01 10 1.02 10 0 10 C0 6.7 0 3.4 0 0 Z " fill="#F5D62F" transform="translate(210,182)"/>
<path d="M0 0 C1.24428286 3.73284859 0.57773122 5.52342677 -0.375 9.3125 C-1.42354556 13.53118096 -2.3368701 17.70265819 -3 22 C-3.33 22 -3.66 22 -4 22 C-4 16.72 -4 11.44 -4 6 C-3.34 6 -2.68 6 -2 6 C-2 4.68 -2 3.36 -2 2 C-1.34 2 -0.68 2 0 2 C0 1.34 0 0.68 0 0 Z " fill="#F9E777" transform="translate(234,202)"/>
<path d="M0 0 C0 0.66 0 1.32 0 2 C-6.56654456 4.3030887 -12.03672362 5.33693273 -19 5 C-15.912511 3.32518285 -12.88620072 2.29597217 -9.5 1.375 C-8.5615625 1.11460937 -7.623125 0.85421875 -6.65625 0.5859375 C-4 0 -4 0 0 0 Z " fill="#F6E578" transform="translate(176,169)"/>
<path d="M0 0 C0 6.93 0 13.86 0 21 C-0.33 21 -0.66 21 -1 21 C-1.33 14.73 -1.66 8.46 -2 2 C-4.64 2.33 -7.28 2.66 -10 3 C-10 2.34 -10 1.68 -10 1 C-6.56484998 0.37542727 -3.50935186 0 0 0 Z " fill="#F6CF18" transform="translate(211,161)"/>
<path d="M0 0 C10.39706862 0.86075949 10.39706862 0.86075949 14 3 C14.625 5.07421875 14.625 5.07421875 15 7 C9.76727367 5.36041242 4.84803364 3.61047965 0 1 C0 0.67 0 0.34 0 0 Z " fill="#F8E261" transform="translate(237,142)"/>
<path d="M0 0 C0.66 0.33 1.32 0.66 2 1 C-1.55574944 5.74099926 -4.56928056 8.53149116 -10 11 C-12.21484375 10.59765625 -12.21484375 10.59765625 -14 10 C-13.07316406 9.36191406 -12.14632812 8.72382813 -11.19140625 8.06640625 C-9.98173309 7.23182554 -8.77209973 6.39718714 -7.5625 5.5625 C-6.64500977 4.93118164 -6.64500977 4.93118164 -5.70898438 4.28710938 C-2.71897291 2.31239178 -2.71897291 2.31239178 0 0 Z " fill="#F8E672" transform="translate(232,241)"/>
<path d="M0 0 C1 3 1 3 1 7 C1.33 7.99 1.66 8.98 2 10 C1.5625 12.1875 1.5625 12.1875 1 14 C0.34 14 -0.32 14 -1 14 C-1 14.66 -1 15.32 -1 16 C-1.66 16 -2.32 16 -3 16 C-3.37952295 9.80112515 -2.8352113 5.5522888 0 0 Z M-2 12 C-1 14 -1 14 -1 14 Z " fill="#F8E46F" transform="translate(232,173)"/>
<path d="M0 0 C1.32 0.33 2.64 0.66 4 1 C4 1.99 4 2.98 4 4 C-1.34883721 9 -1.34883721 9 -4 9 C-4.66 10.32 -5.32 11.64 -6 13 C-6.625 11.125 -6.625 11.125 -7 9 C-6.34 8.34 -5.68 7.68 -5 7 C-4.01 7 -3.02 7 -2 7 C-2 6.01 -2 5.02 -2 4 C-1.01 4 -0.02 4 1 4 C0.67 2.68 0.34 1.36 0 0 Z " fill="#F8E474" transform="translate(267,146)"/>
<path d="M0 0 C3.8115128 0.85232321 7.44370223 2.14251321 11.125 3.4375 C12.36507812 3.86933594 13.60515625 4.30117187 14.8828125 4.74609375 C18 6 18 6 20 8 C18.22868439 7.69024532 16.45796222 7.37709575 14.6875 7.0625 C13.70136719 6.88847656 12.71523437 6.71445313 11.69921875 6.53515625 C9 6 9 6 6 5 C6 4.34 6 3.68 6 3 C5.195625 2.87625 4.39125 2.7525 3.5625 2.625 C2.716875 2.41875 1.87125 2.2125 1 2 C0.67 1.34 0.34 0.68 0 0 Z " fill="#F9E874" transform="translate(243,136)"/>
<path d="M0 0 C0 0.66 0 1.32 0 2 C-3.80514861 5.32950503 -6.29338698 7.34000863 -11.4375 7.3125 C-13.2009375 7.1578125 -13.2009375 7.1578125 -15 7 C-12.87014687 4.87014687 -11.24646669 4.1100986 -8.5 2.9375 C-1.67169811 0 -1.67169811 0 0 0 Z " fill="#F8E87B" transform="translate(218,252)"/>
<path d="M0 0 C5.61 0 11.22 0 17 0 C17 0.33 17 0.66 17 1 C15.7934375 1.185625 15.7934375 1.185625 14.5625 1.375 C13.716875 1.58125 12.87125 1.7875 12 2 C11.67 2.66 11.34 3.32 11 4 C9.35232753 3.71890887 7.70686855 3.42481474 6.0625 3.125 C4.68771484 2.88136719 4.68771484 2.88136719 3.28515625 2.6328125 C2.53105469 2.42398438 1.77695313 2.21515625 1 2 C0.67 1.34 0.34 0.68 0 0 Z " fill="#FBCF08" transform="translate(211,151)"/>
<path d="M0 0 C0.33 0 0.66 0 1 0 C1 5.28 1 10.56 1 16 C-0.32 16 -1.64 16 -3 16 C-3 15.34 -3 14.68 -3 14 C-2.34 14 -1.68 14 -1 14 C-1.01160156 13.15695313 -1.02320313 12.31390625 -1.03515625 11.4453125 C-1.04417969 10.34960938 -1.05320313 9.25390625 -1.0625 8.125 C-1.07410156 7.03445312 -1.08570313 5.94390625 -1.09765625 4.8203125 C-1 2 -1 2 0 0 Z " fill="#F4D024" transform="translate(227,224)"/>
<path d="M0 0 C1.32 0 2.64 0 4 0 C3.69096017 1.33917261 3.34976758 2.67088318 3 4 C2.773125 5.03125 2.54625 6.0625 2.3125 7.125 C1 10 1 10 -2.125 11.375 C-3.07375 11.58125 -4.0225 11.7875 -5 12 C-3.22054913 7.95579349 -0.60470327 4.53921513 2 1 C1.34 0.67 0.68 0.34 0 0 Z " fill="#FAE15B" transform="translate(252,149)"/>
<path d="M0 0 C6.20477864 1.93624298 12.10825719 4.25609141 18 7 C15.50866372 8.24566814 14.70951551 7.87266789 12.0625 7.1875 C11.37285156 7.01605469 10.68320313 6.84460938 9.97265625 6.66796875 C8 6 8 6 5 4 C3.34450469 3.61500109 1.6777567 3.27206865 0 3 C0 2.01 0 1.02 0 0 Z " fill="#F9E47C" transform="translate(225,128)"/>
<path d="M0 0 C-1.77444972 2.24606427 -2.58352485 2.95081002 -5.48046875 3.29296875 C-6.82044922 3.24076172 -6.82044922 3.24076172 -8.1875 3.1875 C-9.53908203 3.14689453 -9.53908203 3.14689453 -10.91796875 3.10546875 C-11.60503906 3.07066406 -12.29210937 3.03585937 -13 3 C-9.40924638 -1.07244008 -5.12719199 -1.709064 0 0 Z " fill="#F6DA4A" transform="translate(197,278)"/>
<path d="M0 0 C4.95 0 9.9 0 15 0 C15.33 0.99 15.66 1.98 16 3 C14.27054347 2.85764543 12.54144346 2.71095618 10.8125 2.5625 C9.36810547 2.44068359 9.36810547 2.44068359 7.89453125 2.31640625 C5.21350398 2.02333849 2.6337014 1.57296246 0 1 C0 0.67 0 0.34 0 0 Z " fill="#F8E374" transform="translate(208,155)"/>
<path d="M0 0 C2.67901932 2.31881505 3.66204403 4.31814468 4.6875 7.6875 C5.06455078 8.89986328 5.06455078 8.89986328 5.44921875 10.13671875 C5.63097656 10.75160156 5.81273437 11.36648437 6 12 C5.01 11.67 4.02 11.34 3 11 C3 10.01 3 9.02 3 8 C2.34 8 1.68 8 1 8 C1 7.01 1 6.02 1 5 C-0.32 4.67 -1.64 4.34 -3 4 C-3 3.34 -3 2.68 -3 2 C-2.01 2 -1.02 2 0 2 C0 1.34 0 0.68 0 0 Z " fill="#EED032" transform="translate(163,241)"/>
<path d="M0 0 C0.66 0 1.32 0 2 0 C2 0.66 2 1.32 2 2 C2.66 2 3.32 2 4 2 C5.32 4.97 6.64 7.94 8 11 C4 10 4 10 2.734375 8.4765625 C2.40953125 7.86554688 2.0846875 7.25453125 1.75 6.625 C1.41484375 6.01914063 1.0796875 5.41328125 0.734375 4.7890625 C0 3 0 3 0 0 Z " fill="#F8E366" transform="translate(212,222)"/>
<path d="M0 0 C2.29946417 3.44919626 2.80769035 6.1381022 3.625 10.1875 C3.88539063 11.45980469 4.14578125 12.73210937 4.4140625 14.04296875 C4.60742188 15.01878906 4.80078125 15.99460938 5 17 C1.0393174 14.35954494 0.96416082 12.59830543 0 8 C-0.14573593 5.30623587 -0.0947856 2.70138973 0 0 Z " fill="#F8E57F" transform="translate(154,209)"/>
<path d="M0 0 C0.66 0 1.32 0 2 0 C2 3.96 2 7.92 2 12 C0.68 11.67 -0.64 11.34 -2 11 C-1.34 7.37 -0.68 3.74 0 0 Z " fill="#F8CF10" transform="translate(257,207)"/>
<path d="M0 0 C4.03520597 1.58962659 8.01811282 3.28232318 12 5 C12 5.33 12 5.66 12 6 C9.36 6 6.72 6 4 6 C3.67 5.01 3.34 4.02 3 3 C2.01 3 1.02 3 0 3 C0 2.01 0 1.02 0 0 Z " fill="#F6E477" transform="translate(145,257)"/>
<path d="M0 0 C0.66 0 1.32 0 2 0 C2.66 1.65 3.32 3.3 4 5 C3.01 5 2.02 5 1 5 C1 8.96 1 12.92 1 17 C0.67 17 0.34 17 0 17 C-0.19386492 14.35448944 -0.38038267 11.70882217 -0.5625 9.0625 C-0.61857422 8.30775391 -0.67464844 7.55300781 -0.73242188 6.77539062 C-0.86176157 4.85254042 -0.93516912 2.92610452 -1 1 C-0.67 0.67 -0.34 0.34 0 0 Z " fill="#F9F4B5" transform="translate(255,191)"/>
<path d="M0 0 C0.33 0.99 0.66 1.98 1 3 C0.34 3 -0.32 3 -1 3 C-1 4.98 -1 6.96 -1 9 C-1.99 9.33 -2.98 9.66 -4 10 C-4 7.36 -4 4.72 -4 2 C-3.34 1.67 -2.68 1.34 -2 1 C-1.34 1.33 -0.68 1.66 0 2 C0 1.34 0 0.68 0 0 Z " fill="#FCD526" transform="translate(231,187)"/>
<path d="M0 0 C0.99 0 1.98 0 3 0 C5.09350689 3.4019487 5.17942163 6.05272412 5 10 C2.08772731 6.71195019 0.50298788 4.40114397 0 0 Z " fill="#F8E26D" transform="translate(119,261)"/>
<path d="M0 0 C0.33 0 0.66 0 1 0 C3.11161731 11.52164009 3.11161731 11.52164009 4 17 C3.34 17 2.68 17 2 17 C0.30167391 11.16200408 -0.25287193 6.06892629 0 0 Z " fill="#F4D126" transform="translate(205,191)"/>
<path d="M0 0 C0.33 0 0.66 0 1 0 C0.85890014 2.10448938 0.71195825 4.2085877 0.5625 6.3125 C0.48128906 7.48425781 0.40007812 8.65601563 0.31640625 9.86328125 C0 13 0 13 -1 16 C-1.66 16 -2.32 16 -3 16 C-2.40984815 10.49191603 -1.43336231 5.35121931 0 0 Z " fill="#F8E77E" transform="translate(223,169)"/>
<path d="M0 0 C4 4.625 4 4.625 4 8 C0.73045798 7.43628586 -0.82575883 6.50037734 -3 4 C-2.01 4 -1.02 4 0 4 C0 2.68 0 1.36 0 0 Z " fill="#EFEBA8" transform="translate(172,253)"/>
<path d="M0 0 C1.23556641 0.01740234 1.23556641 0.01740234 2.49609375 0.03515625 C3.32238281 0.04417969 4.14867187 0.05320312 5 0.0625 C5.63808594 0.07410156 6.27617187 0.08570313 6.93359375 0.09765625 C2.18654098 3.2623581 -1.3841192 3.206931 -7.06640625 3.09765625 C-6.42703125 2.78828125 -5.78765625 2.47890625 -5.12890625 2.16015625 C-1.03016727 0.04868465 -1.03016727 0.04868465 0 0 Z " fill="#F7E46A" transform="translate(182.06640625,280.90234375)"/>
<path d="M0 0 C0 3.10551666 -0.5393715 4.35261084 -2 7 C-2.66 7 -3.32 7 -4 7 C-4.33 7.99 -4.66 8.98 -5 10 C-6 8 -6 8 -5.875 5.5625 C-5 3 -5 3 -2.4375 1.1875 C-1.633125 0.795625 -0.82875 0.40375 0 0 Z " fill="#F8E566" transform="translate(253,234)"/>
<path d="M0 0 C-0.33 0.66 -0.66 1.32 -1 2 C-3.75078884 2.91692961 -5.35948913 3.10886083 -8.1875 3.0625 C-10.0746875 3.0315625 -10.0746875 3.0315625 -12 3 C-8.52582963 0.68388642 -4.04642977 -2.02321489 0 0 Z " fill="#F8EA81" transform="translate(203,260)"/>
<path d="M0 0 C1.5 1.125 1.5 1.125 3 3 C3.1875 6.1875 3.1875 6.1875 3 9 C2.01 8.67 1.02 8.34 0 8 C0 5.36 0 2.72 0 0 Z " fill="#F4DD57" transform="translate(158,226)"/>
<path d="M0 0 C3 1 3 1 3.984375 2.7421875 C4.23703125 3.44601563 4.4896875 4.14984375 4.75 4.875 C5.01296875 5.57367188 5.2759375 6.27234375 5.546875 6.9921875 C6 9 6 9 5 12 C5 11.34 5 10.68 5 10 C4.34 10 3.68 10 3 10 C1.87119943 6.68885166 0.78697325 3.41021743 0 0 Z " fill="#F2D31F" transform="translate(209,212)"/>
<path d="M0 0 C1 2 1 2 0.875 4.4375 C0 7 0 7 -2.5625 8.8125 C-3.366875 9.204375 -4.17125 9.59625 -5 10 C-3.84414715 6.08788267 -2.64465038 3.1254959 0 0 Z " fill="#F9E36E" transform="translate(239,170)"/>
<path d="M0 0 C3.96 0 7.92 0 12 0 C12 0.33 12 0.66 12 1 C10.43883181 1.33951619 8.87598662 1.67132544 7.3125 2 C6.00732422 2.2784375 6.00732422 2.2784375 4.67578125 2.5625 C2.06287036 2.98972047 -0.35813038 3.07616201 -3 3 C-2.01 2.67 -1.02 2.34 0 2 C0 1.34 0 0.68 0 0 Z " fill="#F9E77E" transform="translate(166,177)"/>
<path d="M0 0 C0.33 0 0.66 0 1 0 C1.25 7.625 1.25 7.625 -1 11 C-1.66 11 -2.32 11 -3 11 C-2.32829194 7.1936543 -1.27253436 3.64793184 0 0 Z " fill="#F8E467" transform="translate(227,158)"/>
<path d="M0 0 C1.12377697 3.30435084 0.89554742 5.0506862 -0.4375 8.25 C-0.72496094 8.95640625 -1.01242188 9.6628125 -1.30859375 10.390625 C-1.53675781 10.92171875 -1.76492187 11.4528125 -2 12 C-2.33 12 -2.66 12 -3 12 C-3 9.69 -3 7.38 -3 5 C-2.34 5 -1.68 5 -1 5 C-0.67 3.35 -0.34 1.7 0 0 Z " fill="#F7E786" transform="translate(240,150)"/>
<path d="M0 0 C0.36923077 6.4 0.36923077 6.4 -1.5 9.4375 C-1.995 9.953125 -2.49 10.46875 -3 11 C-2.125 5.25 -2.125 5.25 -1 3 C-2.32 2.67 -3.64 2.34 -5 2 C-2 0 -2 0 0 0 Z " fill="#F6E463" transform="translate(146,206)"/>
<path d="M0 0 C1.32 0.33 2.64 0.66 4 1 C4 1.99 4 2.98 4 4 C4.66 4 5.32 4 6 4 C6.33 5.65 6.66 7.3 7 9 C4.03595495 6.19195732 1.55500981 3.81684226 0 0 Z " fill="#F6EA86" transform="translate(160,245)"/>
<path d="M0 0 C0.33 0 0.66 0 1 0 C1 2.64 1 5.28 1 8 C0.34 8 -0.32 8 -1 8 C-1.33 8.99 -1.66 9.98 -2 11 C-1.85892253 9.54119891 -1.71197585 8.08296449 -1.5625 6.625 C-1.48128906 5.81289062 -1.40007812 5.00078125 -1.31640625 4.1640625 C-1 2 -1 2 0 0 Z " fill="#F9E369" transform="translate(122,232)"/>
<path d="M0 0 C2.31 0 4.62 0 7 0 C6.67 0.66 6.34 1.32 6 2 C3.6859378 2.73075648 1.35171131 3.40138258 -1 4 C-0.67 2.68 -0.34 1.36 0 0 Z " fill="#F8CD0E" transform="translate(155,176)"/>
<path d="M0 0 C1 2 1 2 0.44140625 4.1640625 C0.15136719 4.97617188 -0.13867188 5.78828125 -0.4375 6.625 C-0.72496094 7.44226563 -1.01242188 8.25953125 -1.30859375 9.1015625 C-1.53675781 9.72804687 -1.76492187 10.35453125 -2 11 C-2.33 11 -2.66 11 -3 11 C-3.36923077 4.6 -3.36923077 4.6 -1.5 1.5625 C-1.005 1.046875 -0.51 0.53125 0 0 Z " fill="#F7E775" transform="translate(236,162)"/>
<path d="M0 0 C0.33 0.66 0.66 1.32 1 2 C-0.73397418 5.65047197 -2.19333016 7.55609075 -6 9 C-5.33333333 7.66666667 -4.66666667 6.33333333 -4 5 C-3.67 4.278125 -3.34 3.55625 -3 2.8125 C-2 1 -2 1 0 0 Z " fill="#F9E56C" transform="translate(246,161)"/>
<path d="M0 0 C2.875 -0.125 2.875 -0.125 6 0 C6.66 0.66 7.32 1.32 8 2 C5.03 2.66 2.06 3.32 -1 4 C-0.67 2.68 -0.34 1.36 0 0 Z " fill="#F3D43A" transform="translate(206,123)"/>
<path d="M0 0 C-5.75 5 -5.75 5 -8 5 C-8 4.01 -8 3.02 -8 2 C-3.71900826 -1.23966942 -3.71900826 -1.23966942 0 0 Z " fill="#FBEB81" transform="translate(233,259)"/>
<path d="M0 0 C-2 2 -2 2 -3.9453125 2.1953125 C-5.96354167 2.13020833 -7.98177083 2.06510417 -10 2 C-6.19832777 -0.53444815 -4.31588991 -1.33941411 0 0 Z " fill="#FBEA89" transform="translate(157,175)"/>
<path d="M0 0 C5 2 5 2 10 4 C8.375 4.6875 8.375 4.6875 6 5 C2.75 3.5625 2.75 3.5625 0 2 C0 1.34 0 0.68 0 0 Z " fill="#F4CF24" transform="translate(239,135)"/>
<path d="M0 0 C0.99 0.33 1.98 0.66 3 1 C1.6875 3 1.6875 3 0 5 C-0.99 5 -1.98 5 -3 5 C-3 4.01 -3 3.02 -3 2 C-2.01 2 -1.02 2 0 2 C0 1.34 0 0.68 0 0 Z " fill="#F4DB3D" transform="translate(234,253)"/>
<path d="M0 0 C0.66 0.33 1.32 0.66 2 1 C-0.475 4.465 -0.475 4.465 -3 8 C-4 6 -4 6 -3.1875 3.4375 C-2 1 -2 1 0 0 Z " fill="#F9E979" transform="translate(252,166)"/>
</svg>
